<mxfile host="Electron" modified="2023-12-30T03:47:56.849Z" agent="Mozilla/5.0 (X11; Linux x86_64) AppleWebKit/537.36 (KHTML, like Gecko) draw.io/21.6.8 Chrome/114.0.5735.289 Electron/25.9.6 Safari/537.36" etag="OGbqWXLwyk1gKkMmvk0a" version="21.6.8" type="device">
  <diagram name="Page-1" id="waToT-_TQXdz1UbK6SKb">
    <mxGraphModel dx="1434" dy="1071" grid="1" gridSize="10" guides="1" tooltips="1" connect="1" arrows="1" fold="1" page="1" pageScale="1" pageWidth="850" pageHeight="1100" math="0" shadow="0">
      <root>
        <mxCell id="0" />
        <mxCell id="1" parent="0" />
        <mxCell id="Tgo-EIQqhHf8mCCOI4vc-4" value="iPXE client" style="rounded=0;whiteSpace=wrap;html=1;" vertex="1" parent="1">
          <mxGeometry x="200" y="160" width="120" height="360" as="geometry" />
        </mxCell>
        <mxCell id="Tgo-EIQqhHf8mCCOI4vc-6" value="docker-compose" style="rounded=1;whiteSpace=wrap;html=1;verticalAlign=top;align=center;spacingLeft=0;" vertex="1" parent="1">
          <mxGeometry x="420" y="160" width="200" height="370" as="geometry" />
        </mxCell>
        <mxCell id="Tgo-EIQqhHf8mCCOI4vc-7" value="# .env&lt;br&gt;IP_IPXE_SERVER=x.x.x.x&lt;br&gt;IP_NEXT_SERVER=y.y.y.y&lt;br&gt;..." style="shape=note;whiteSpace=wrap;html=1;backgroundOutline=1;darkOpacity=0.05;align=left;spacingLeft=4;" vertex="1" parent="1">
          <mxGeometry x="680" y="160" width="170" height="130" as="geometry" />
        </mxCell>
        <mxCell id="Tgo-EIQqhHf8mCCOI4vc-9" value="" style="endArrow=classic;html=1;rounded=0;" edge="1" parent="1">
          <mxGeometry width="50" height="50" relative="1" as="geometry">
            <mxPoint x="620" y="180" as="sourcePoint" />
            <mxPoint x="680" y="180" as="targetPoint" />
          </mxGeometry>
        </mxCell>
        <mxCell id="Tgo-EIQqhHf8mCCOI4vc-10" value="&lt;font style=&quot;font-size: 12px;&quot;&gt;(1)&lt;/font&gt;" style="text;html=1;strokeColor=none;fillColor=none;align=center;verticalAlign=middle;whiteSpace=wrap;rounded=0;" vertex="1" parent="1">
          <mxGeometry x="630" y="150" width="40" height="30" as="geometry" />
        </mxCell>
        <mxCell id="Tgo-EIQqhHf8mCCOI4vc-11" value="" style="endArrow=classic;html=1;rounded=0;" edge="1" parent="1">
          <mxGeometry width="50" height="50" relative="1" as="geometry">
            <mxPoint x="680" y="190" as="sourcePoint" />
            <mxPoint x="620" y="190" as="targetPoint" />
          </mxGeometry>
        </mxCell>
        <mxCell id="Tgo-EIQqhHf8mCCOI4vc-1" value="iPXE server&lt;br&gt;" style="rounded=0;whiteSpace=wrap;html=1;verticalAlign=top;align=left;spacingLeft=4;" vertex="1" parent="1">
          <mxGeometry x="460" y="190" width="120" height="140" as="geometry" />
        </mxCell>
        <mxCell id="Tgo-EIQqhHf8mCCOI4vc-3" value="Image server&lt;br&gt;(next-server)" style="rounded=0;whiteSpace=wrap;html=1;verticalAlign=top;align=left;spacingLeft=4;" vertex="1" parent="1">
          <mxGeometry x="460" y="350" width="120" height="140" as="geometry" />
        </mxCell>
        <mxCell id="Tgo-EIQqhHf8mCCOI4vc-12" value="(0) Run docker-compose first.&lt;br&gt;(1) Read variables from .env. iPXE server will find an IP of next-server when read it. docker-compose will boot iPXE server and image server after read it.&lt;br&gt;(2)&amp;nbsp;" style="text;html=1;strokeColor=none;fillColor=none;align=left;verticalAlign=top;whiteSpace=wrap;rounded=0;" vertex="1" parent="1">
          <mxGeometry x="81" y="560" width="680" height="100" as="geometry" />
        </mxCell>
        <mxCell id="Tgo-EIQqhHf8mCCOI4vc-14" value="&lt;font style=&quot;font-size: 12px;&quot;&gt;(2)&lt;/font&gt;" style="text;html=1;strokeColor=none;fillColor=none;align=center;verticalAlign=middle;whiteSpace=wrap;rounded=0;" vertex="1" parent="1">
          <mxGeometry x="330" y="190" width="40" height="30" as="geometry" />
        </mxCell>
        <mxCell id="Tgo-EIQqhHf8mCCOI4vc-15" value="" style="endArrow=classic;html=1;rounded=0;" edge="1" parent="1">
          <mxGeometry width="50" height="50" relative="1" as="geometry">
            <mxPoint x="320" y="220" as="sourcePoint" />
            <mxPoint x="460" y="220" as="targetPoint" />
          </mxGeometry>
        </mxCell>
        <mxCell id="Tgo-EIQqhHf8mCCOI4vc-16" value="" style="endArrow=classic;html=1;rounded=0;" edge="1" parent="1">
          <mxGeometry width="50" height="50" relative="1" as="geometry">
            <mxPoint x="460" y="230" as="sourcePoint" />
            <mxPoint x="320" y="230" as="targetPoint" />
          </mxGeometry>
        </mxCell>
      </root>
    </mxGraphModel>
  </diagram>
</mxfile>
